<svg id="visual" viewBox="0 0 900 600" width="900" height="600" xmlns="http://www.w3.org/2000/svg" xmlns:xlink="http://www.w3.org/1999/xlink" version="1.1"><rect x="0" y="0" width="900" height="600" fill="#002233"></rect><path d="M655 600L652.3 580C649.7 560 644.3 520 669.5 480C694.7 440 750.3 400 771.5 360C792.7 320 779.3 280 770.7 240C762 200 758 160 765.5 120C773 80 792 40 801.5 20L811 0L900 0L900 20C900 40 900 80 900 120C900 160 900 200 900 240C900 280 900 320 900 360C900 400 900 440 900 480C900 520 900 560 900 580L900 600Z" fill="#0066FF" stroke-linecap="round" stroke-linejoin="miter"></path></svg>